<?xml version="1.0" encoding="utf-8"?>
<!-- Generator: Adobe Illustrator 27.8.1, SVG Export Plug-In . SVG Version: 6.00 Build 0)  -->
<svg version="1.1" id="Layer_1" xmlns="http://www.w3.org/2000/svg" xmlns:xlink="http://www.w3.org/1999/xlink" x="0px" y="0px"
	 viewBox="0 0 1080 680.04" style="enable-background:new 0 0 1080 680.04;" xml:space="preserve">
<style type="text/css">
	.st0{fill:#519BD4;}
	.st1{font-family:'GillSansMT-Condensed';}
	.st2{font-size:200.9031px;}
	.st3{fill:#0D2243;}
	.st4{fill:#FFFFFF;}
	.st5{fill:#64A8DC;}
	.st6{fill:#76BAE6;}
	.st7{fill:#3C8ECC;}
	.st8{fill:#3785BF;}
	.st9{fill:#86CBF0;}
</style>
<g>
	<g>
		<text transform="matrix(1 0 0 1 328.2617 409.4932)" class="st0 st1 st2">UN</text>
		<g>
			<path class="st3" d="M505.28,409.49V275.3h41.79v16.09h-24.52v39.93h22.86v16.09h-22.86v62.1H505.28z"/>
			<path class="st3" d="M570.81,409.49V275.3h14.42c11.51,0,20.29,3.38,26.34,10.15c6.05,6.77,9.07,15.78,9.07,27.03
				c0,12.75-4.64,22.33-13.93,28.74c7.19,5.1,13.31,18.67,18.34,40.71l6.18,27.57h-18.1l-5.19-23.15
				c-3.7-16.22-6.93-26.54-9.67-30.95c-2.75-4.41-6.15-6.39-10.2-5.93v60.04H570.81z M588.08,333.37h0.78
				c9.68,0,14.52-6.77,14.52-20.31c0-14.39-5.1-21.61-15.3-21.68V333.37z"/>
			<path class="st3" d="M637.51,409.49l25.31-134.98h17.95l25.11,134.98H689.2l-4.81-29.72h-24.92l-5.3,29.72H637.51z
				 M662.03,363.68h19.32l-9.42-56.21h-0.49L662.03,363.68z"/>
			<path class="st3" d="M753.26,324.54l19.91-49.25h14.81v134.2h-16.87l1.08-97.02l-0.49-0.39l-16.87,44.14h-3.14l-16.87-44.14
				l-0.49,0.39l1.08,97.02h-16.87V275.3h14.81L753.26,324.54z"/>
			<path class="st3" d="M810.94,409.49V275.3h47.77v16.09h-30.51v40.12h27.96v16.09h-27.96v45.81h32.18v16.09H810.94z"/>
			<path class="st3" d="M883.44,409.49V275.3h19.03c30.67,0,46.01,22.3,46.01,66.9c0,22.3-3.81,39.09-11.43,50.37
				c-7.62,11.28-18.33,16.92-32.13,16.92H883.44z M900.7,393.41h2.55c10.2,0,17.41-3.91,21.63-11.72c4.22-7.81,6.33-20.71,6.33-38.7
				c0-18.77-2-32.06-5.98-39.88c-3.99-7.81-11.18-11.72-21.58-11.72h-2.94V393.41z"/>
		</g>
	</g>
	<path class="st3" d="M287.12,239.63v200.78c0,4.71-2.03,8.94-5.26,11.85c-2.81,2.56-6.54,4.1-10.62,4.1H139.76
		c-8.78,0-15.89-7.15-15.89-15.95V239.63c0-8.82,7.11-15.96,15.89-15.96h131.47C280.01,223.68,287.12,230.81,287.12,239.63"/>
	<path class="st4" d="M281.86,452.27c-2.81,2.56-6.54,4.1-10.62,4.1H139.76c-8.78,0-15.89-7.15-15.89-15.96V338.98
		c17.02-5.92,39.3-13.31,58.57-19.62c22.95-7.5,41.63-13.46,42.07-13.46c0,0.02,0.01,0.07,0.04,0.14c-0.01,0.04-0.01,0.06-0.03,0.09
		c0.02,0,0.03-0.02,0.04-0.03c0.03,0.09,0.07,0.2,0.12,0.33c0.05,0.13,0.1,0.27,0.16,0.43c0,0.01,0,0.03,0.01,0.04
		c0.06,0.16,0.12,0.35,0.2,0.55c0.1,0.23,0.19,0.52,0.31,0.82c0.04,0.11,0.08,0.19,0.12,0.29c0.05,0.14,0.11,0.29,0.17,0.43
		c0.85,2.23,2.17,5.59,3.84,9.82c0.22,0.58,0.47,1.18,0.72,1.79c3.44,8.72,8.2,20.66,13.53,34c0.34,0.86,0.68,1.74,1.03,2.62
		c3.3,8.28,6.77,17.06,10.27,25.89c0.2,0.51,0.41,1.02,0.6,1.53c2.24,5.67,4.5,11.35,6.68,16.94c0.36,0.92,0.73,1.84,1.09,2.75
		c3.42,8.69,6.71,17.09,9.68,24.82c0.53,1.35,1.04,2.68,1.53,3.98c0.3,0.77,0.59,1.54,0.88,2.3c0.09,0.22,0.17,0.44,0.26,0.68
		c0.24,0.62,0.48,1.23,0.71,1.84c0.83,2.16,1.61,4.24,2.36,6.23c0.29,0.76,0.58,1.51,0.85,2.25c0.13,0.38,0.28,0.73,0.41,1.1
		c0.27,0.71,0.53,1.42,0.8,2.12c0.13,0.34,0.26,0.68,0.38,1.02c0.12,0.34,0.25,0.68,0.38,0.99
		C281.65,451.72,281.74,451.93,281.86,452.27"/>
	<path class="st4" d="M224.56,306.11c-0.01-0.02-0.02-0.04-0.02-0.06c0,0.03-0.01,0.06-0.02,0.09
		C224.54,306.13,224.55,306.12,224.56,306.11"/>
	<path class="st4" d="M270.92,223.67H249.3l-0.06,0.13c0.93,0.72,1.63,1.26,2.44,1.88c-2.54,5.12-3.44,10.11,1.36,14.57
		c-5.07-0.56-8.72-4.96-8.43-9.81c0.06-1.14-0.58-2.27-0.72-3.45c-0.12-1.07-0.46-2.35-0.26-3.32h-5.1c0.04,1.71,0.8,3.35,2.19,4.83
		c0.51,0.55,1.27,1.29,1.22,1.88c-0.3,4.39,1.64,7.65,5.17,10.34c-3.34-0.15-3.34-0.15-4.97,2.73c-2.28,4.07-4.41,8.23-6.89,12.17
		c-2.87,4.59-4.16,8.99,0.47,13.27c-1.45,2.58-2.77,4.98-4.13,7.35c-1.76,3.06-1.83,6.01,0.21,9.01c0.42,0.61,0.41,1.86,0.09,2.57
		c-1.13,2.48-2.58,4.79-3.7,7.27c-1.17,2.61-2.2,5.3-2.89,8.08c-0.22,0.85-0.74,1.98-0.74,2.85c0,0.03,0.01,0.05,0.01,0.06
		c5.84-3.97,8.64-9.75,11.77-15.28c0.44-0.76,1.55-1.67,2.3-1.61c3.92,0.3,6.39-1.55,8.15-4.81c1.29-2.37,2.66-4.72,3.92-6.97
		c5.74,0.84,7.87-0.21,10.59-5.04c2.47-4.38,4.9-8.78,7.39-13.15c1.21-2.1,3-4.12-0.29-6.29c4.24,1.65,7.97,1.77,11.57-0.7
		c0.5-0.34,1.34-0.36,1.96-0.22c2.16,0.45,3.8,0.45,5.19-0.14v-11.95C287.12,230.96,279.86,223.67,270.92,223.67 M234.19,283.87
		c-1.25-1.27-1.89-3.23-0.88-5.26c1.78-3.56,3.85-6.97,5.99-10.77c1.01,0.65,1.67,1.06,2.87,1.82L234.19,283.87z M236.81,266.07
		c-1.68-1.6-2.13-3.72-0.99-5.84c2.77-5.23,5.76-10.34,8.75-15.68l2.82,1.6C244.36,253.02,238.46,258.36,236.81,266.07"/>
	<path class="st0" d="M203.81,341.75c-0.46,1.2-53.22,112.39-54.13,114.57c0,0.01-0.01,0.04-0.03,0.05h-9.58
		c-8.94,0-16.2-7.28-16.2-16.27v-6.25c11.59-13.67,23.2-27.31,34.8-40.97C172.61,376.48,203.64,341.63,203.81,341.75"/>
	<path class="st5" d="M211.66,346.97c-0.78,1.39-49.09,103.02-52.15,109.39h33.25C199.22,421.16,211.95,347.07,211.66,346.97"/>
	<path class="st6" d="M227.88,400.75c-1.37-17.01-5.41-54.06-5.67-54.02c-1.87,9.8-3.81,19.58-5.61,29.39
		c-4.62,25.3-9.17,50.6-13.76,75.9c-0.26,1.45-0.53,2.9-0.79,4.34h30c-0.27-3.55-0.53-7.1-0.8-10.65
		C230.1,430.73,229.09,415.74,227.88,400.75"/>
	<path class="st7" d="M189.66,342.28c1.75-2.08,3.45-4.2,5.18-6.31c-5.41,2.94-11.04,6.15-15.15,9.01
		c-17.47,12.1-34.94,24.19-52.42,36.27c-1.13,0.78-2.26,1.56-3.39,2.33v36.33c7.83-9.19,15.67-18.36,23.48-27.57
		C161.48,375.67,175.56,358.97,189.66,342.28"/>
	<path class="st8" d="M151.36,339.57c-9.16,3.32-18.32,6.64-27.49,9.92v22.96c21.39-14.79,42.79-29.59,64.18-44.38
		C183.45,329.23,162.9,335.39,151.36,339.57"/>
	<path class="st9" d="M273.33,456.36h-32.16c-2.84-35.59-5.67-71.18-8.52-106.78c0.87,1.81,11.87,29.13,15.86,40.51
		c3.05,8.66,6.34,17.23,9.45,25.87c0.86,2.32,9.67,25.25,15.3,40.22C273.29,456.25,273.31,456.3,273.33,456.36"/>
</g>
</svg>
