<?xml version="1.0" encoding="utf-8"?>
<!-- Generator: Adobe Illustrator 27.8.1, SVG Export Plug-In . SVG Version: 6.00 Build 0)  -->
<svg version="1.1" id="Layer_1" xmlns="http://www.w3.org/2000/svg" xmlns:xlink="http://www.w3.org/1999/xlink" x="0px" y="0px"
	 viewBox="0 0 1080 680.04" style="enable-background:new 0 0 1080 680.04;" xml:space="preserve">
<style type="text/css">
	.st0{fill:#FFFFFF;}
	.st1{font-family:'GillSansMT-Condensed';}
	.st2{font-size:200.9031px;}
	.st3{fill:none;}
</style>
<g>
	<g>
		<text transform="matrix(1 0 0 1 328.2605 405.8068)" class="st0 st1 st2">UN</text>
		<g>
			<path class="st0" d="M505.28,405.81v-134.2h41.79v16.09h-24.52v39.93h22.86v16.09h-22.86v62.1H505.28z"/>
			<path class="st0" d="M570.81,405.81v-134.2h14.42c11.51,0,20.29,3.38,26.34,10.15c6.05,6.77,9.07,15.78,9.07,27.03
				c0,12.75-4.64,22.33-13.93,28.74c7.19,5.1,13.31,18.67,18.34,40.71l6.18,27.57h-18.1l-5.19-23.15
				c-3.7-16.22-6.93-26.54-9.67-30.95c-2.75-4.41-6.15-6.39-10.2-5.93v60.04H570.81z M588.07,329.68h0.78
				c9.68,0,14.52-6.77,14.52-20.31c0-14.39-5.1-21.61-15.3-21.68V329.68z"/>
			<path class="st0" d="M637.51,405.81l25.31-134.98h17.95l25.11,134.98H689.2l-4.81-29.72h-24.92l-5.3,29.72H637.51z M662.03,360
				h19.32l-9.42-56.21h-0.49L662.03,360z"/>
			<path class="st0" d="M753.26,320.85l19.91-49.25h14.81v134.2h-16.87l1.08-97.02l-0.49-0.39l-16.87,44.14h-3.14l-16.87-44.14
				l-0.49,0.39l1.08,97.02h-16.87v-134.2h14.81L753.26,320.85z"/>
			<path class="st0" d="M810.94,405.81v-134.2h47.77v16.09h-30.51v40.12h27.96v16.09h-27.96v45.81h32.18v16.09H810.94z"/>
			<path class="st0" d="M883.44,405.81v-134.2h19.03c30.67,0,46.01,22.3,46.01,66.9c0,22.3-3.81,39.09-11.43,50.37
				c-7.62,11.28-18.33,16.92-32.13,16.92H883.44z M900.7,389.72h2.55c10.2,0,17.41-3.91,21.63-11.72c4.22-7.81,6.33-20.71,6.33-38.7
				c0-18.77-2-32.06-5.98-39.88c-3.99-7.81-11.18-11.72-21.58-11.72h-2.94V389.72z"/>
		</g>
	</g>
	<path class="st0" d="M203.81,338.06c-0.46,1.2-53.23,112.4-54.13,114.57c0,0.01-0.02,0.04-0.03,0.05h-9.89
		c-8.78,0-15.89-7.14-15.89-15.95v-6.57c11.58-13.67,23.2-27.32,34.8-40.97C172.58,372.82,203.53,338.06,203.81,338.06z"/>
	<path class="st0" d="M188.05,324.38c-21.39,14.8-42.79,29.59-64.18,44.38V345.8c9.17-3.28,18.33-6.59,27.49-9.91
		C162.89,331.71,183.45,325.55,188.05,324.38z"/>
	<path class="st0" d="M147.35,388.64c-7.81,9.21-15.65,18.38-23.48,27.57v-36.32c1.13-0.78,2.26-1.56,3.38-2.34
		c17.48-12.07,34.96-24.16,52.42-36.26c4.12-2.86,9.75-6.07,15.16-9.01c-1.73,2.11-3.43,4.23-5.18,6.31
		C175.56,355.28,161.48,371.98,147.35,388.64z"/>
	<path class="st0" d="M192.76,452.68h-33.25c3.06-6.37,51.37-108,52.15-109.39C211.95,343.39,199.22,417.48,192.76,452.68z"/>
	<path class="st0" d="M231.24,442.03c0.27,3.55,0.53,7.1,0.8,10.65h-30c0.27-1.45,0.53-2.89,0.8-4.34
		c4.59-25.3,9.14-50.6,13.75-75.9c1.8-9.81,3.74-19.59,5.61-29.39c0.26,0,4.31,37.01,5.67,54.02
		C229.09,412.05,230.1,427.04,231.24,442.03z"/>
	<path class="st0" d="M273.26,452.5c0.01,0.02,0.01,0.03,0.02,0.04c-0.67,0.09-1.35,0.14-2.05,0.14h-30.06
		c-2.84-35.59-5.67-71.18-8.52-106.78c0.87,1.81,11.87,29.13,15.86,40.51c3.05,8.67,6.34,17.23,9.45,25.87
		C258.82,414.6,267.63,437.54,273.26,452.5z"/>
	<path class="st0" d="M233.31,274.93c1.78-3.56,3.85-6.96,5.99-10.77c1.01,0.65,1.67,1.06,2.87,1.82l-7.98,14.21
		C232.94,278.91,232.3,276.95,233.31,274.93z"/>
	<path class="st0" d="M225.29,299.51c-0.22,0.84-0.74,1.95-0.75,2.82c-0.02-0.06-0.03-0.09-0.03-0.11
		c-0.44,0-19.12,5.96-42.07,13.46c-19.27,6.3-41.55,13.69-58.57,19.62v-99.35c0-8.82,7.11-15.96,15.89-15.96h98.76
		c0.03,1.71,0.79,3.35,2.18,4.83c0.51,0.55,1.27,1.29,1.22,1.89c-0.3,4.39,1.64,7.65,5.17,10.33c-3.34-0.15-3.34-0.15-4.97,2.74
		c-2.27,4.07-4.41,8.22-6.89,12.17c-2.87,4.59-4.16,8.99,0.48,13.27c-1.46,2.58-2.77,4.98-4.13,7.35c-1.77,3.06-1.83,6.01,0.21,9.02
		c0.42,0.61,0.41,1.86,0.09,2.57c-1.13,2.48-2.58,4.79-3.7,7.27C227.01,294.04,225.98,296.73,225.29,299.51z"/>
	<path class="st0" d="M247.38,242.46c-3.02,6.88-8.93,12.21-10.58,19.93c-1.68-1.6-2.12-3.72-0.99-5.85
		c2.77-5.23,5.75-10.33,8.75-15.68L247.38,242.46z"/>
	<path class="st0" d="M243.87,223.31c-0.12-1.07-0.46-2.35-0.26-3.32h5.68l-0.06,0.13c0.94,0.72,1.63,1.26,2.44,1.88
		c-2.54,5.12-3.44,10.11,1.35,14.57c-5.07-0.56-8.71-4.96-8.42-9.81C244.66,225.62,244.01,224.48,243.87,223.31z"/>
	<path class="st0" d="M287.11,235.95v0.32c0-8.99-7.26-16.28-16.19-16.28h0.31C280,219.99,287.11,227.13,287.11,235.95z"/>
	<path class="st0" d="M287.11,248.22v188.51c0,4.71-2.03,8.94-5.25,11.85c-0.13-0.33-0.21-0.55-0.22-0.57
		c-0.13-0.32-0.26-0.66-0.38-1c-0.12-0.34-0.26-0.68-0.38-1.02c-0.27-0.7-0.53-1.41-0.8-2.12c-0.14-0.37-0.28-0.73-0.41-1.1
		c-0.27-0.74-0.56-1.49-0.85-2.25c-0.75-1.99-1.54-4.07-2.36-6.23c-0.23-0.61-0.47-1.23-0.71-1.84c-0.09-0.24-0.18-0.46-0.26-0.68
		c-0.29-0.75-0.59-1.52-0.89-2.3c-0.49-1.3-1-2.63-1.52-3.98c-2.98-7.73-6.27-16.13-9.69-24.82c-0.35-0.91-0.72-1.83-1.08-2.75
		c-2.18-5.58-4.44-11.27-6.68-16.94c-0.19-0.51-0.4-1.02-0.6-1.53c-3.5-8.84-6.98-17.62-10.27-25.89c-0.35-0.89-0.7-1.77-1.03-2.63
		c-5.32-13.34-10.09-25.28-13.53-34c-0.25-0.62-0.5-1.22-0.72-1.8c-1.67-4.23-2.98-7.59-3.84-9.82c-0.07-0.14-0.13-0.29-0.17-0.43
		c-0.04-0.1-0.08-0.18-0.12-0.29c-0.11-0.3-0.21-0.59-0.31-0.82c-0.07-0.2-0.14-0.38-0.2-0.55c-0.01-0.01-0.01-0.03-0.01-0.04
		c-0.06-0.16-0.11-0.31-0.16-0.43c-0.05-0.13-0.09-0.23-0.12-0.32c-0.01,0-0.02,0.01-0.03,0.02c0.01-0.02,0.01-0.04,0.02-0.06v-0.06
		c0,0.01,0,0.02,0.01,0.03c0,0.01-0.01,0.02,0,0.03c0,0.02,0,0.02,0,0.03h0.01c5.84-3.98,8.64-9.75,11.77-15.28
		c0.43-0.76,1.55-1.67,2.3-1.61c3.91,0.3,6.39-1.55,8.15-4.81c1.3-2.37,2.66-4.71,3.92-6.96c5.74,0.84,7.87-0.21,10.59-5.04
		c2.48-4.39,4.9-8.78,7.39-13.15c1.2-2.1,2.99-4.12-0.29-6.29c4.24,1.65,7.97,1.77,11.58-0.7c0.49-0.34,1.34-0.36,1.96-0.23
		C284.09,248.8,285.73,248.8,287.11,248.22z"/>
	<path class="st0" d="M203.81,338.06c-0.46,1.2-53.23,112.4-54.13,114.57c0,0.01-0.02,0.04-0.03,0.05h-9.89
		c-8.78,0-15.89-7.14-15.89-15.95v-6.57c11.58-13.67,23.2-27.32,34.8-40.97C172.58,372.82,203.53,338.06,203.81,338.06z"/>
	<path class="st0" d="M188.05,324.38c-21.39,14.8-42.79,29.59-64.18,44.38V345.8c9.17-3.28,18.33-6.59,27.49-9.91
		C162.89,331.71,183.45,325.55,188.05,324.38z"/>
	<path class="st0" d="M147.35,388.64c-7.81,9.21-15.65,18.38-23.48,27.57v-36.32c1.13-0.78,2.26-1.56,3.38-2.34
		c17.48-12.07,34.96-24.16,52.42-36.26c4.12-2.86,9.75-6.07,15.16-9.01c-1.73,2.11-3.43,4.23-5.18,6.31
		C175.56,355.28,161.48,371.98,147.35,388.64z"/>
	<path class="st0" d="M192.76,452.68h-33.25c3.06-6.37,51.37-108,52.15-109.39C211.95,343.39,199.22,417.48,192.76,452.68z"/>
	<path class="st0" d="M224.55,302.36c0,0.01-0.01,0.02,0,0.03h-0.01v-0.06C224.54,302.34,224.54,302.35,224.55,302.36z"/>
	<path class="st0" d="M231.24,442.03c0.27,3.55,0.53,7.1,0.8,10.65h-30c0.27-1.45,0.53-2.89,0.8-4.34
		c4.59-25.3,9.14-50.6,13.75-75.9c1.8-9.81,3.74-19.59,5.61-29.39c0.26,0,4.31,37.01,5.67,54.02
		C229.09,412.05,230.1,427.04,231.24,442.03z"/>
	<path class="st0" d="M273.28,452.54c-0.67,0.09-1.35,0.14-2.05,0.14h-30.06c-2.84-35.59-5.67-71.18-8.52-106.78
		c0.87,1.81,11.87,29.13,15.86,40.51c3.05,8.67,6.34,17.23,9.45,25.87c0.86,2.32,9.67,25.26,15.3,40.22
		C273.27,452.52,273.27,452.53,273.28,452.54z"/>
	<path class="st3" d="M224.54,302.39c-0.01,0.02-0.01,0.04-0.02,0.06c0.01-0.01,0.02-0.02,0.03-0.02h0.01v-0.01h-0.01
		C224.55,302.41,224.55,302.41,224.54,302.39L224.54,302.39v-0.06"/>
	<path class="st0" d="M224.54,302.33v0.06h0.01c-0.01-0.01,0-0.02,0-0.03C224.54,302.35,224.54,302.34,224.54,302.33z"/>
	<path class="st0" d="M203.81,338.06c-0.46,1.2-53.23,112.4-54.13,114.57c0,0.01-0.02,0.04-0.03,0.05h-9.58
		c-8.94,0-16.2-7.28-16.2-16.27v-6.25c11.58-13.67,23.2-27.32,34.8-40.97C172.58,372.82,203.53,338.06,203.81,338.06z"/>
	<path class="st0" d="M192.76,452.68h-33.25c3.06-6.37,51.37-108,52.15-109.39C211.95,343.39,199.22,417.48,192.76,452.68z"/>
	<path class="st0" d="M232.04,452.68h-30c0.27-1.45,0.53-2.89,0.8-4.34c4.59-25.3,9.14-50.6,13.75-75.9
		c1.8-9.81,3.74-19.59,5.61-29.39c0.26,0,4.31,37.01,5.67,54.02c1.22,14.98,2.23,29.97,3.37,44.96
		C231.51,445.58,231.77,449.13,232.04,452.68z"/>
	<path class="st0" d="M194.83,332.28c-1.73,2.11-3.43,4.23-5.18,6.31c-14.09,16.69-28.17,33.39-42.3,50.05
		c-7.81,9.21-15.65,18.38-23.48,27.57v-36.32c1.13-0.78,2.26-1.56,3.38-2.34c17.48-12.07,34.96-24.16,52.42-36.26
		C183.79,338.43,189.42,335.22,194.83,332.28z"/>
	<path class="st0" d="M188.05,324.38c-21.39,14.8-42.79,29.59-64.18,44.38V345.8c9.17-3.28,18.33-6.59,27.49-9.91
		C162.89,331.71,183.45,325.55,188.05,324.38z"/>
	<path class="st0" d="M273.33,452.68h-32.16c-2.84-35.59-5.67-71.18-8.52-106.78c0.87,1.81,11.87,29.13,15.86,40.51
		c3.05,8.67,6.34,17.23,9.45,25.87c0.86,2.32,9.67,25.26,15.3,40.22c0.01,0.02,0.01,0.03,0.02,0.04
		C273.3,452.59,273.31,452.63,273.33,452.68z"/>
</g>
</svg>
