<?xml version="1.0" encoding="utf-8"?>
<!-- Generator: Adobe Illustrator 27.8.1, SVG Export Plug-In . SVG Version: 6.00 Build 0)  -->
<svg version="1.1" id="Layer_1" xmlns="http://www.w3.org/2000/svg" xmlns:xlink="http://www.w3.org/1999/xlink" x="0px" y="0px"
	 viewBox="0 0 1920 1080" style="enable-background:new 0 0 1920 1080;" xml:space="preserve">
<style type="text/css">
	.st0{fill:#FFFFFF;stroke:#FFFFFF;stroke-width:0.089;stroke-miterlimit:10;}
	.st1{fill:#FFFFFF;stroke:#FFFFFF;stroke-miterlimit:10;}
	.st2{font-family:'Mont-Book';}
	.st3{font-size:21.6578px;}
	.st4{font-size:23.126px;}
</style>
<g>
	<line class="st0" x1="1571.44" y1="589.87" x2="1692.21" y2="589.87"/>
	<path class="st1" d="M234.15,427.11h56.06l139.16,228.14h-53.45l-28.35-48.24H176.8l-28.03,48.24H95.32L234.15,427.11z
		 M325.08,567.9l-62.57-108.53L199.29,567.9H325.08z"/>
	<polygon class="st1" points="725.97,427.06 941.06,427.06 941.06,465.84 772.25,465.84 772.25,521.25 938.14,521.25 938.14,557.42 
		772.25,557.42 772.25,616.09 941.06,616.09 941.06,655.19 725.97,655.19 	"/>
	<polygon class="st1" points="968.04,427.06 1010.09,427.06 1180.86,591.32 1180.86,427.06 1227.14,427.06 1227.14,655.19 
		1184.77,655.19 1014.32,490.94 1014.32,655.19 968.04,655.19 	"/>
	<path class="st1" d="M1384.28,427.03h56.06l139.16,228.14h-53.45l-28.35-48.24h-170.77l-28.04,48.24h-53.45L1384.28,427.03z
		 M1475.21,567.83l-62.57-108.53l-63.23,108.53H1475.21z"/>
	<rect x="447.65" y="427.07" class="st1" width="50.66" height="228.18"/>
	<path class="st1" d="M637.39,520.83l58.24-55.6v-38.16H519.17v43.43h111.3l-54.93,55.26l7.89,32.24h21.05
		c12.01,0,21.94,1.9,29.4,5.52c9.02,4.38,14.53,13.78,14.53,23.82v67.91H699v-75.88C696.27,541.01,667.15,525.83,637.39,520.83"/>
	<g>
		<path class="st1" d="M1551.48,427.03v5.76h-14.86v43.12h-6.13v-43.12h-14.86v-5.76H1551.48z"/>
		<path class="st1" d="M1581.28,437.39c4.48,0,8.02,1.44,10.63,4.31c2.61,2.88,3.92,6.75,3.92,11.64v22.56h-5.93v-21.17
			c0-3.82-0.88-6.76-2.62-8.83c-1.75-2.07-4.26-3.1-7.53-3.1c-3.23,0-5.93,1.2-8.11,3.61s-3.27,5.39-3.27,8.93v20.55h-5.96v-51.16
			h5.96v18.61c1.48-1.89,3.33-3.35,5.56-4.4C1576.15,437.92,1578.6,437.39,1581.28,437.39z"/>
		<path class="st1" d="M1610.44,431.7v-6.82h6.44v6.82H1610.44z M1610.68,475.91v-37.7h5.96v37.7H1610.68z"/>
		<path class="st1" d="M1645.78,438.01h3.34v5.62h-3.85c-3.41,0-6.06,1.05-7.94,3.14c-1.89,2.09-2.83,4.98-2.83,8.66v20.49h-5.96
			v-37.7h4.23l0.95,5.73C1636.45,439.98,1640.47,438.01,1645.78,438.01z"/>
		<path class="st1" d="M1671.11,470.42h4.09v5.49h-4.87c-4.07,0-7.27-1.18-9.59-3.53c-2.33-2.35-3.49-5.57-3.49-9.66v-19.16h-6.65
			v-1.06l11.66-12.27h0.92v7.98H1675v5.35h-11.83v18.99c0,2.54,0.68,4.49,2.04,5.85S1668.54,470.42,1671.11,470.42z"/>
		<path class="st1" d="M1718.35,457.23c0,0.68-0.03,1.39-0.1,2.11h-32.14c0.45,3.5,1.89,6.31,4.31,8.42s5.4,3.17,8.95,3.17
			c2.59,0,4.9-0.57,6.92-1.72c2.02-1.15,3.62-2.74,4.81-4.79h6.27c-1.61,3.89-3.99,6.91-7.14,9.07c-3.15,2.16-6.77,3.24-10.86,3.24
			c-3.59,0-6.86-0.85-9.8-2.56s-5.25-4.06-6.92-7.06s-2.51-6.35-2.51-10.06c0-3.68,0.84-7.03,2.51-10.04
			c1.67-3.01,3.98-5.37,6.92-7.07c2.94-1.7,6.21-2.56,9.8-2.56c3.73,0,7.04,0.89,9.95,2.66c2.91,1.77,5.14,4.16,6.7,7.17
			C1717.57,450.24,1718.35,453.57,1718.35,457.23z M1699.37,443.02c-3.41,0-6.29,0.98-8.66,2.95c-2.36,1.97-3.85,4.6-4.46,7.89
			h26.18c-0.64-3.34-2.13-5.98-4.48-7.92S1702.73,443.02,1699.37,443.02z"/>
		<path class="st1" d="M1762.46,457.23c0,0.68-0.03,1.39-0.1,2.11h-32.14c0.45,3.5,1.89,6.31,4.31,8.42s5.4,3.17,8.95,3.17
			c2.59,0,4.9-0.57,6.92-1.72c2.02-1.15,3.62-2.74,4.81-4.79h6.27c-1.61,3.89-3.99,6.91-7.14,9.07c-3.15,2.16-6.77,3.24-10.86,3.24
			c-3.59,0-6.86-0.85-9.8-2.56s-5.25-4.06-6.92-7.06s-2.51-6.35-2.51-10.06c0-3.68,0.84-7.03,2.51-10.04
			c1.67-3.01,3.98-5.37,6.92-7.07c2.94-1.7,6.21-2.56,9.8-2.56c3.73,0,7.04,0.89,9.95,2.66c2.91,1.77,5.14,4.16,6.7,7.17
			C1761.68,450.24,1762.46,453.57,1762.46,457.23z M1743.47,443.02c-3.41,0-6.29,0.98-8.66,2.95c-2.36,1.97-3.85,4.6-4.46,7.89
			h26.18c-0.64-3.34-2.13-5.98-4.48-7.92S1746.83,443.02,1743.47,443.02z"/>
		<path class="st1" d="M1790.2,437.39c4.41,0,7.94,1.49,10.58,4.46c2.65,2.98,3.97,6.81,3.97,11.49v22.56h-5.93v-21.17
			c0-3.82-0.88-6.76-2.62-8.83c-1.75-2.07-4.26-3.1-7.53-3.1c-3.23,0-5.93,1.2-8.11,3.61s-3.27,5.39-3.27,8.93v20.55h-5.96v-37.7
			h4.23l1.16,5.9c1.43-2.11,3.32-3.76,5.66-4.94C1784.7,437.98,1787.32,437.39,1790.2,437.39z"/>
	</g>
	<g>
		<path class="st1" d="M1575.73,541.67l-4.84-11.69h-23.48l-4.77,11.69h-6.51l19.97-48.88h5.73l20.55,48.88H1575.73z
			 M1559.06,501.24l-9.37,23.11h18.92L1559.06,501.24z"/>
		<path class="st1" d="M1620.68,503.97h3.95v32.42c0,6.09-1.65,10.87-4.94,14.35s-7.8,5.21-13.53,5.21c-4.61,0-8.49-1.13-11.62-3.39
			c-3.14-2.26-5.21-5.4-6.24-9.42h5.93c0.82,2.32,2.31,4.13,4.48,5.44s4.65,1.96,7.45,1.96c3.82,0,6.88-1.19,9.2-3.58
			c2.32-2.39,3.48-5.65,3.48-9.78v-2.32c-1.7,1.77-3.74,3.15-6.1,4.14c-2.36,0.99-4.91,1.48-7.63,1.48c-3.43,0-6.57-0.82-9.41-2.45
			c-2.84-1.64-5.07-3.88-6.7-6.73c-1.62-2.85-2.44-6-2.44-9.46s0.81-6.61,2.44-9.48c1.62-2.86,3.86-5.11,6.7-6.75
			c2.84-1.64,5.98-2.45,9.41-2.45c2.98,0,5.73,0.59,8.27,1.77c2.53,1.18,4.66,2.82,6.39,4.91L1620.68,503.97z M1596.36,531.08
			c2.49,2.47,5.62,3.7,9.39,3.7c3.77,0,6.88-1.22,9.34-3.66c2.45-2.44,3.68-5.54,3.68-9.29c0-3.75-1.23-6.85-3.68-9.31
			s-5.57-3.68-9.34-3.68c-3.77,0-6.9,1.23-9.39,3.7c-2.49,2.47-3.73,5.56-3.73,9.29C1592.63,525.53,1593.88,528.62,1596.36,531.08z"
			/>
		<path class="st1" d="M1671.81,522.99c0,0.68-0.03,1.39-0.1,2.11h-32.14c0.45,3.5,1.89,6.31,4.31,8.42s5.4,3.17,8.95,3.17
			c2.59,0,4.9-0.57,6.92-1.72c2.02-1.15,3.62-2.74,4.81-4.79h6.27c-1.61,3.89-3.99,6.91-7.14,9.07c-3.15,2.16-6.77,3.24-10.86,3.24
			c-3.59,0-6.86-0.85-9.8-2.56s-5.25-4.06-6.92-7.06s-2.51-6.35-2.51-10.06c0-3.68,0.84-7.03,2.51-10.04
			c1.67-3.01,3.98-5.37,6.92-7.07c2.94-1.7,6.21-2.56,9.8-2.56c3.73,0,7.04,0.89,9.95,2.66c2.91,1.77,5.14,4.16,6.7,7.17
			C1671.03,516,1671.81,519.33,1671.81,522.99z M1652.83,508.78c-3.41,0-6.29,0.98-8.66,2.95c-2.36,1.97-3.85,4.6-4.46,7.89h26.18
			c-0.64-3.34-2.13-5.98-4.48-7.92S1656.19,508.78,1652.83,508.78z"/>
		<path class="st1" d="M1699.56,503.15c4.41,0,7.94,1.49,10.58,4.46c2.65,2.98,3.97,6.81,3.97,11.49v22.56h-5.93V520.5
			c0-3.82-0.88-6.76-2.62-8.83c-1.75-2.07-4.26-3.1-7.53-3.1c-3.23,0-5.93,1.2-8.11,3.61s-3.27,5.39-3.27,8.93v20.55h-5.96v-37.7
			h4.23l1.16,5.9c1.43-2.11,3.32-3.76,5.66-4.94C1694.06,503.74,1696.67,503.15,1699.56,503.15z"/>
		<path class="st1" d="M1742.1,542.49c-3.66,0-6.99-0.85-9.99-2.56c-3-1.7-5.35-4.06-7.06-7.07c-1.7-3.01-2.56-6.36-2.56-10.04
			c0-3.7,0.85-7.06,2.56-10.06s4.06-5.35,7.06-7.06c3-1.7,6.33-2.56,9.99-2.56c4.48,0,8.36,1.23,11.64,3.68s5.5,5.74,6.66,9.85
			h-5.86c-1.11-2.43-2.77-4.34-4.98-5.73c-2.21-1.39-4.69-2.08-7.46-2.08c-3.86,0-7.08,1.34-9.66,4.01
			c-2.58,2.67-3.87,5.98-3.87,9.94c0,3.93,1.3,7.24,3.89,9.92c2.59,2.68,5.81,4.02,9.65,4.02c2.77,0,5.24-0.7,7.4-2.11
			c2.16-1.41,3.82-3.37,4.98-5.9h6c-1.16,4.16-3.4,7.49-6.73,9.99S1746.53,542.49,1742.1,542.49z"/>
		<path class="st1" d="M1796.29,503.97h6.31l-17.96,39.27c-2.04,4.48-4.13,7.58-6.25,9.3s-4.96,2.59-8.5,2.59h-3.54v-5.39h3.03
			c2.5,0,4.39-0.51,5.66-1.53c1.27-1.02,2.67-3.12,4.19-6.31l1.36-2.79l-16.77-35.14h6.48l13.4,28.53L1796.29,503.97z"/>
	</g>
	<text transform="matrix(1 0 0 1 1698.7617 593.9043)" class="st1 st2 st3">E</text>
	<text transform="matrix(1 0 0 1 1716.5215 593.9043)" class="st1 st2 st3">S</text>
	<text transform="matrix(1 0 0 1 1734.3242 593.9043)" class="st1 st2 st3">T</text>
	<text transform="matrix(1 0 0 1 1751.8301 593.9043)" class="st1 st2 st3">D</text>
	<text transform="matrix(1 0 0 1 1770.0439 593.9043)" class="st1 st2 st3">.</text>
	<text transform="matrix(1 0 0 1 1773.7754 593.9043)" class="st1 st2 st3"> </text>
	<text transform="matrix(1 0 0 1 1780.4688 593.9043)" class="st1 st2 st3">2</text>
	<text transform="matrix(1 0 0 1 1791.8438 593.9043)"><tspan x="0" y="0" class="st1 st2 st3">0</tspan><tspan x="13.62" y="0" class="st1 st2 st3">1</tspan></text>
	<text transform="matrix(1 0 0 1 1812.7949 593.9043)" class="st1 st2 st3">6</text>
	<text transform="matrix(1 0 0 1 422.6646 442.9272)" class="st1 st2 st4">®</text>
</g>
</svg>
