<?xml version="1.0" encoding="utf-8"?>
<!-- Generator: Adobe Illustrator 27.8.1, SVG Export Plug-In . SVG Version: 6.00 Build 0)  -->
<svg version="1.1" id="Layer_1" xmlns="http://www.w3.org/2000/svg" xmlns:xlink="http://www.w3.org/1999/xlink" x="0px" y="0px"
	 viewBox="0 0 1000 1000" style="enable-background:new 0 0 1000 1000;" xml:space="preserve">
<style type="text/css">
	.st0{fill:#00A278;}
	.st1{fill:#211F5E;}
	.st2{fill:#057854;}
	.st3{fill:#037653;}
	.st4{fill:#FCB418;}
	.st5{fill:#047A55;}
</style>
<g>
	<polygon class="st0" points="723.77,360.21 665.67,302.11 569.29,398.49 665.67,494.88 723.77,436.78 685.48,398.49 	"/>
	<polygon class="st1" points="878.25,398.49 781.87,302.11 723.77,360.21 762.06,398.49 723.77,436.78 781.87,494.88 	"/>
	
		<rect x="696.7" y="371.42" transform="matrix(0.7071 -0.7071 0.7071 0.7071 -69.7908 628.4978)" class="st2" width="54.15" height="54.15"/>
	<path class="st1" d="M280.72,543.22h574.47c12.73,0,23.06-10.32,23.06-23.06v0c0-12.73-10.32-23.06-23.06-23.06H280.72
		c-12.73,0-23.06,10.32-23.06,23.06v0C257.66,532.89,267.99,543.22,280.72,543.22z"/>
	<path class="st3" d="M198.09,543.22h28.97c12.73,0,23.06-10.32,23.06-23.06v0c0-12.73-10.32-23.06-23.06-23.06h-28.97
		c-12.73,0-23.06,10.32-23.06,23.06v0C175.03,532.89,185.35,543.22,198.09,543.22z"/>
	<path class="st4" d="M144.72,543.22L144.72,543.22c12.73,0,23.06-10.32,23.06-23.06v0c0-12.73-10.32-23.06-23.06-23.06h0
		c-12.73,0-23.06,10.32-23.06,23.06v0C121.66,532.89,131.98,543.22,144.72,543.22z"/>
	<g>
		<g>
			<path class="st5" d="M261.96,687.61l-9.98,9.98c-0.41,0.41-1.06,0.41-1.47,0l-9.98-9.98c-0.41-0.41-0.41-1.06,0-1.47l9.98-9.98
				c0.41-0.41,1.06-0.41,1.47,0l9.98,9.98C262.36,686.54,262.36,687.2,261.96,687.61z"/>
			<path class="st5" d="M241.12,687.61l-9.98,9.98c-0.41,0.41-1.06,0.41-1.47,0l-9.98-9.98c-0.41-0.41-0.41-1.06,0-1.47l9.98-9.98
				c0.41-0.41,1.06-0.41,1.47,0l9.98,9.98C241.53,686.54,241.53,687.2,241.12,687.61z"/>
		</g>
		<g>
			<path class="st5" d="M637.88,586.71l-9.98,9.98c-0.41,0.41-1.06,0.41-1.47,0l-9.98-9.98c-0.41-0.41-0.41-1.06,0-1.47l9.98-9.98
				c0.41-0.41,1.06-0.41,1.47,0l9.98,9.98C638.28,585.64,638.28,586.3,637.88,586.71z"/>
			<path class="st5" d="M617.04,586.71l-9.98,9.98c-0.41,0.41-1.06,0.41-1.47,0l-9.98-9.98c-0.41-0.41-0.41-1.06,0-1.47l9.98-9.98
				c0.41-0.41,1.06-0.41,1.47,0l9.98,9.98C617.45,585.64,617.45,586.3,617.04,586.71z"/>
		</g>
		<path class="st5" d="M483.74,594.58l-9.98,9.98c-0.41,0.41-1.06,0.41-1.47,0l-9.98-9.98c-0.41-0.41-0.41-1.06,0-1.47l9.98-9.98
			c0.41-0.41,1.06-0.41,1.47,0l9.98,9.98C484.15,593.52,484.15,594.17,483.74,594.58z"/>
		<path class="st5" d="M801.07,594.58l-9.98,9.98c-0.41,0.41-1.06,0.41-1.47,0l-9.98-9.98c-0.41-0.41-0.41-1.06,0-1.47l9.98-9.98
			c0.41-0.41,1.06-0.41,1.47,0l9.98,9.98C801.48,593.52,801.48,594.17,801.07,594.58z"/>
		<path class="st5" d="M462.91,594.58l-9.98,9.98c-0.41,0.41-1.06,0.41-1.47,0l-9.98-9.98c-0.41-0.41-0.41-1.06,0-1.47l9.98-9.98
			c0.41-0.41,1.06-0.41,1.47,0l9.98,9.98C463.31,593.52,463.31,594.17,462.91,594.58z"/>
		<g>
			<path class="st5" d="M225.64,650.44c-11.84-0.22-16.49-4.21-19.38-16.94c-2.54-11.19-11.73-18.38-24.58-18.38h-31.56
				c-16.4,0-27.58,11.52-27.58,29.46v39.09h15.29V647c0-11.19,4.32-16.84,12.95-16.84h7.1c-1.23,3.1-1.78,6.54-1.78,10.3
				c0,15.18,9.86,25.15,25.03,25.15c9.19,0,16.06-3,20.82-8.86c6.17,5.84,13.72,8.4,23.14,8.51c0.22,0.01,0.44,0.01,0.67,0.01h0.67
				v-14.84H225.64z M181.91,653.09h-1.11c-5.65,0-9.53-5.2-9.53-12.62c0-7.3,3.88-12.73,10.3-12.73c6.21,0,10.19,4.87,10.19,12.29
				C191.75,648.78,188.44,653.09,181.91,653.09z"/>
			<path class="st5" d="M256.87,650.44c1.22-3.43,1.78-7.08,1.78-11.19v-24.14h-15.62v24.7c0,7.08-2.54,10.63-7.75,10.63h-10.19
				v14.84h49.84v-14.84H256.87z"/>
			<path class="st5" d="M349.89,650.44c-1.65-14.84-7.41-25.14-17.27-31c-4.1-2.43-8.97-3.88-14.4-4.43h-8.3l13.84-21.05h-18.49
				l-21.94,35.33h27.91c5.98,0,11.08,2.11,15.29,6.32c3.87,3.87,6.3,8.86,7.08,14.84H272.7v14.84h91.37v-14.84H349.89z"/>
			<path class="st5" d="M439.37,650.44c-1.89-16.38-8.86-27.35-20.72-33c-4.98-2.32-10.74-3.54-17.27-3.54
				c-10.74,0-19.82,3.87-27.35,11.73c3.65,4.99,6.21,8.42,7.75,10.53c4.32-4.55,11.84-7.99,18.49-7.99c6.97,0,12.73,2.45,17.05,7.21
				c3.88,4.21,5.99,9.19,6.32,15.06h-62.91v14.84h90.37v-14.84H439.37z"/>
			<path class="st5" d="M480.34,650.44c1.23-3.43,1.89-7.08,1.89-11.19v-24.14H466.6v24.7c0,7.08-2.65,10.63-7.86,10.63h-10.19
				v14.84h49.95v-14.84H480.34z"/>
			<path class="st5" d="M513.12,593.95v45.64c0,7.19-2.65,10.85-7.86,10.85h-11.41v14.84h14.62c6.54,0,11.62-2.22,15.29-6.76
				c3.2-3.87,4.87-8.74,4.87-14.62v-49.95H513.12z"/>
			<path class="st5" d="M539.92,593.85v71.43h15.5v-71.43H539.92z"/>
			<path class="st5" d="M650.55,650.44c-7.54,0-11.3-3.98-11.3-11.3v-34.89c-19.71,0-29.57,0-29.57,0.11
				c-14.62,0-22.92,10.64-22.92,27.13c0,15.29,8.52,26.81,21.81,26.81c7.64,0,12.95-2.32,15.73-6.65
				c3.54,9.08,9.74,13.62,18.6,13.62h15.62v-14.84H650.55z M623.31,630.28c0,9.08-3.99,15.18-10.52,15.18
				c-6.21,0-10.64-6.43-10.64-14.18c0-8.63,4.65-15.62,10.97-15.62h10.19V630.28z"/>
			<path class="st5" d="M755.53,650.44c-1.44-22.7-12.06-35.54-30.22-35.54c-12.4,0-25.26,7.41-35,19.82v-14.28H674.8v19.38
				c0,7.97-2.76,10.63-7.86,10.63h-13.95v14.84H767.6v-14.84H755.53z M739.36,650.44h-45.41c8.52-14.62,18.72-22.03,30.13-22.03
				c9.74,0,15.39,8.63,15.39,20.04L739.36,650.44z"/>
			<path class="st5" d="M797.17,650.44c1.22-3.43,1.87-7.08,1.87-11.19v-24.14h-15.62v24.7c0,7.08-2.65,10.63-7.86,10.63h-10.19
				v14.84h49.96v-14.84H797.17z"/>
			<path class="st5" d="M852.31,624.52c-15.95,0-25.03,10.08-25.03,25.92h-15.4v14.84h19.94c4.54,6.32,11.62,9.53,21.03,9.53
				c15.51,0,25.48-10.42,25.48-25.26C878.34,634.38,868.26,624.52,852.31,624.52z M852.86,662.17c-6.63,0-10.41-5.2-10.41-12.73
				c0-7.3,3.88-12.51,9.53-12.51h1.11c6.52,0,9.85,4.43,9.85,13.18C862.94,657.3,858.96,662.17,852.86,662.17z"/>
		</g>
	</g>
</g>
</svg>
