<?xml version="1.0" encoding="utf-8"?>
<!-- Generator: Adobe Illustrator 27.8.1, SVG Export Plug-In . SVG Version: 6.00 Build 0)  -->
<svg version="1.1" id="Layer_1" xmlns="http://www.w3.org/2000/svg" xmlns:xlink="http://www.w3.org/1999/xlink" x="0px" y="0px"
	 viewBox="0 0 1000 1000" style="enable-background:new 0 0 1000 1000;" xml:space="preserve">
<style type="text/css">
	.st0{fill:#D22031;}
	.st1{fill:#FFFFFF;}
</style>
<g>
	<path class="st0" d="M148.46,500.32H31.57V373.03c25.85,0,47.35,4.58,64.58,13.66c17.23,9.16,30.27,23.05,39.12,41.68
		C144.04,447.07,148.46,470.98,148.46,500.32"/>
	<path class="st0" d="M275.79,627.69h-0.24c-25.3,0-46.73-4.58-64.11-13.66c-17.46-9.16-30.58-23.13-39.35-41.91
		c-8.77-18.86-13.2-42.77-13.2-71.72v-0.08h116.89V627.69z"/>
	<polygon class="st0" points="275.79,373.03 158.9,373.03 158.9,500.32 275.79,436.67 	"/>
	<g>
		<polygon class="st1" points="365.38,497.68 365.38,416.74 334.24,416.74 334.24,403.57 412.16,403.57 412.16,416.74 
			380.75,416.74 380.75,497.68 		"/>
		<path class="st1" d="M444.13,499.33c-7.5,0-13.83-1.35-19-4.05c-5.17-2.7-9.05-6.84-11.66-12.42c-2.61-5.58-3.91-12.67-3.91-21.26
			c0-8.69,1.31-15.8,3.91-21.33c2.61-5.53,6.49-9.65,11.66-12.35c5.17-2.7,11.5-4.05,19-4.05c7.68,0,14.08,1.35,19.21,4.05
			c5.12,2.7,8.99,6.82,11.59,12.35c2.61,5.53,3.91,12.64,3.91,21.33c0,8.6-1.3,15.69-3.91,21.26c-2.6,5.58-6.47,9.72-11.59,12.42
			C458.21,497.98,451.81,499.33,444.13,499.33 M444.13,487.53c4.57,0,8.32-0.89,11.25-2.67c2.93-1.78,5.1-4.5,6.52-8.16
			c1.42-3.66,2.13-8.28,2.13-13.85v-2.47c0-5.58-0.71-10.2-2.13-13.86c-1.42-3.66-3.59-6.38-6.52-8.16
			c-2.93-1.78-6.68-2.68-11.25-2.68c-4.48,0-8.19,0.89-11.11,2.68c-2.93,1.78-5.1,4.51-6.52,8.16c-1.42,3.66-2.13,8.28-2.13,13.86
			v2.47c0,5.58,0.71,10.2,2.13,13.85c1.42,3.66,3.59,6.38,6.52,8.16C435.94,486.64,439.65,487.53,444.13,487.53"/>
		<path class="st1" d="M506.55,497.68l-21.67-72.16h14.82l10.56,39.51c0.55,1.92,1.03,3.93,1.44,6.04c0.41,2.11,0.8,3.98,1.17,5.63
			c0.36,1.65,0.64,2.79,0.82,3.43h0.82c0.37-1.65,0.78-3.52,1.24-5.62c0.46-2.1,0.87-4.05,1.23-5.83c0.37-1.78,0.64-3.13,0.82-4.05
			l9.6-39.1h15.37l9.88,39.24c0.37,1.47,0.75,3.13,1.17,5.01c0.41,1.88,0.82,3.73,1.24,5.56c0.41,1.83,0.71,3.43,0.89,4.8h0.82
			c0.27-1.28,0.62-2.81,1.03-4.59c0.41-1.78,0.84-3.59,1.3-5.42c0.46-1.83,0.87-3.52,1.24-5.08l10.43-39.51h13.58l-21.54,72.16
			h-14.82l-8.78-35.94c-0.37-1.74-0.82-3.75-1.37-6.04c-0.55-2.28-1.05-4.57-1.51-6.86c-0.46-2.28-0.82-4.3-1.1-6.04h-0.82
			c-0.18,1.01-0.44,2.47-0.75,4.39c-0.32,1.92-0.75,4.12-1.3,6.58c-0.55,2.47-1.19,5.12-1.92,7.96l-9.05,35.94H506.55z"/>
		<path class="st1" d="M611.92,499.33c-2.29,0-4.76-0.27-7.41-0.82c-2.65-0.55-5.14-1.55-7.48-3.02c-2.33-1.46-4.23-3.5-5.69-6.11
			c-1.46-2.61-2.19-6.01-2.19-10.22c0-4.94,1.14-9.01,3.43-12.21c2.28-3.2,5.49-5.71,9.6-7.54c4.12-1.83,9.03-3.11,14.75-3.84
			c5.71-0.73,11.96-1.1,18.73-1.1v-7.13c0-2.38-0.39-4.48-1.17-6.31c-0.78-1.83-2.2-3.25-4.25-4.25c-2.06-1.01-5.01-1.51-8.85-1.51
			c-3.84,0-6.84,0.48-8.99,1.44c-2.15,0.96-3.66,2.15-4.52,3.57c-0.87,1.42-1.3,2.95-1.3,4.6v2.06h-13.72
			c-0.09-0.46-0.14-0.91-0.14-1.37v-1.65c0-4.3,1.21-7.93,3.63-10.91c2.42-2.97,5.83-5.23,10.22-6.79
			c4.39-1.55,9.47-2.33,15.23-2.33c6.22,0,11.41,0.89,15.57,2.68c4.16,1.78,7.29,4.32,9.4,7.61c2.1,3.29,3.16,7.27,3.16,11.93v36.63
			c0,1.74,0.43,2.97,1.3,3.7c0.87,0.73,1.9,1.1,3.09,1.1h4.94v9.6c-1.1,0.46-2.47,0.91-4.12,1.37c-1.65,0.46-3.57,0.69-5.76,0.69
			c-2.47,0-4.55-0.43-6.24-1.3c-1.69-0.87-3.06-2.1-4.11-3.7c-1.05-1.6-1.76-3.41-2.13-5.42h-0.82c-1.65,2.11-3.63,3.96-5.97,5.56
			c-2.33,1.6-5.01,2.84-8.03,3.7C619.05,498.89,615.66,499.33,611.92,499.33 M615.89,487.53c2.83,0,5.46-0.43,7.89-1.3
			c2.42-0.87,4.51-2.1,6.24-3.7c1.73-1.6,3.11-3.52,4.12-5.76c1.01-2.24,1.51-4.69,1.51-7.34v-4.8c-6.31,0-11.85,0.37-16.6,1.1
			c-4.76,0.73-8.46,2.08-11.11,4.05c-2.65,1.97-3.98,4.69-3.98,8.16c0,2.11,0.46,3.87,1.37,5.28c0.91,1.42,2.28,2.49,4.12,3.22
			C611.28,487.17,613.43,487.53,615.89,487.53"/>
		<path class="st1" d="M669.12,497.68v-72.16h11.8l1.24,11.66h0.82c0.82-2.28,1.9-4.44,3.22-6.45c1.32-2.01,3.06-3.66,5.21-4.94
			c2.15-1.28,4.78-1.92,7.89-1.92c1.46,0,2.76,0.14,3.91,0.41c1.14,0.27,2.03,0.5,2.68,0.69v13.44h-4.8c-2.93,0-5.51,0.46-7.75,1.37
			c-2.24,0.92-4.12,2.26-5.63,4.05c-1.51,1.78-2.61,3.96-3.29,6.52c-0.68,2.56-1.03,5.44-1.03,8.64v38.69H669.12z"/>
		<path class="st1" d="M740.05,499.33c-5.86,0-10.93-1.33-15.23-3.98c-4.3-2.65-7.62-6.77-9.95-12.35c-2.33-5.58-3.5-12.8-3.5-21.68
			c0-8.69,1.19-15.78,3.57-21.27c2.38-5.49,5.67-9.56,9.88-12.21c4.2-2.65,9.05-3.98,14.54-3.98c3.2,0,6.17,0.37,8.92,1.1
			c2.74,0.73,5.19,1.88,7.34,3.43c2.15,1.56,3.96,3.52,5.42,5.9h0.96v-35.81h14.27v99.19h-11.66l-1.37-9.88h-0.96
			c-2.38,3.84-5.51,6.72-9.4,8.64C748.99,498.37,744.72,499.33,740.05,499.33 M744.03,486.98c4.21,0,7.61-0.93,10.22-2.81
			c2.61-1.87,4.55-4.62,5.83-8.23c1.28-3.61,1.92-8.02,1.92-13.24v-1.92c0-4.39-0.41-8.14-1.24-11.25
			c-0.82-3.11-2.01-5.65-3.57-7.61c-1.56-1.97-3.43-3.41-5.62-4.32c-2.2-0.91-4.67-1.37-7.41-1.37c-4.21,0-7.64,0.85-10.29,2.54
			c-2.65,1.69-4.59,4.32-5.83,7.89c-1.24,3.57-1.85,8.19-1.85,13.86v2.47c0,5.67,0.64,10.27,1.92,13.79
			c1.28,3.52,3.22,6.11,5.83,7.75C736.56,486.16,739.92,486.98,744.03,486.98"/>
		<path class="st1" d="M821.27,499.33c-5.03,0-9.47-0.55-13.31-1.65c-3.84-1.1-7.04-2.61-9.6-4.53c-2.56-1.92-4.5-4.23-5.83-6.93
			c-1.33-2.7-1.99-5.69-1.99-8.99c0-0.46,0.02-0.87,0.07-1.24c0.04-0.36,0.07-0.69,0.07-0.96h14.13v0.76v0.75
			c0,2.84,0.78,5.1,2.33,6.79c1.55,1.69,3.63,2.88,6.24,3.57c2.61,0.69,5.47,1.03,8.57,1.03c2.75,0,5.28-0.34,7.62-1.03
			c2.33-0.69,4.25-1.71,5.76-3.09c1.51-1.37,2.26-3.11,2.26-5.21c0-2.74-0.96-4.85-2.88-6.31c-1.92-1.46-4.44-2.63-7.55-3.5
			c-3.11-0.87-6.36-1.81-9.74-2.81c-3.02-0.82-6.02-1.71-8.99-2.68c-2.98-0.96-5.65-2.22-8.03-3.77c-2.38-1.55-4.3-3.52-5.76-5.9
			c-1.46-2.38-2.19-5.35-2.19-8.92c0-3.38,0.73-6.36,2.19-8.92c1.46-2.56,3.5-4.71,6.11-6.45c2.61-1.74,5.72-3.06,9.33-3.98
			c3.61-0.91,7.57-1.37,11.87-1.37c4.48,0,8.46,0.48,11.94,1.44c3.47,0.96,6.43,2.31,8.85,4.05c2.42,1.74,4.27,3.82,5.56,6.24
			c1.28,2.43,1.92,5.01,1.92,7.75c0,0.55-0.02,1.12-0.07,1.71c-0.05,0.6-0.07,0.98-0.07,1.17h-13.99v-1.24
			c0-1.83-0.5-3.47-1.51-4.94c-1.01-1.46-2.59-2.65-4.73-3.57c-2.15-0.91-5.01-1.37-8.57-1.37c-2.38,0-4.48,0.21-6.31,0.62
			c-1.83,0.41-3.34,0.98-4.52,1.72c-1.19,0.73-2.08,1.6-2.68,2.61c-0.6,1.01-0.89,2.15-0.89,3.43c0,2.11,0.75,3.73,2.26,4.87
			c1.51,1.14,3.5,2.11,5.97,2.88c2.47,0.78,5.12,1.62,7.96,2.54c3.29,0.91,6.63,1.85,10.01,2.81c3.38,0.96,6.52,2.17,9.4,3.64
			c2.88,1.46,5.21,3.48,7,6.03c1.78,2.56,2.67,5.99,2.67,10.29c0,3.93-0.78,7.36-2.33,10.29c-1.55,2.93-3.73,5.28-6.51,7.07
			c-2.79,1.78-6.06,3.11-9.81,3.98C829.73,498.89,825.66,499.33,821.27,499.33"/>
		<path class="st1" d="M380.61,602.22c-14.91,0-26.36-3.93-34.36-11.8c-8-7.87-12-20.17-12-36.91c0-10.98,1.87-20.05,5.62-27.23
			c3.75-7.18,9.19-12.55,16.32-16.12c7.14-3.57,15.82-5.35,26.07-5.35c6.12,0,11.82,0.69,17.08,2.06c5.26,1.37,9.88,3.45,13.86,6.24
			c3.98,2.79,7.04,6.29,9.19,10.5c2.15,4.21,3.22,9.19,3.22,14.95h-15.64c0-3.57-0.71-6.65-2.13-9.26c-1.42-2.61-3.39-4.78-5.9-6.52
			c-2.52-1.74-5.44-2.99-8.78-3.77c-3.34-0.78-6.88-1.17-10.63-1.17c-5.21,0-9.86,0.69-13.93,2.06c-4.07,1.37-7.47,3.48-10.22,6.31
			c-2.74,2.84-4.8,6.4-6.17,10.7c-1.37,4.3-2.06,9.38-2.06,15.23v2.88c0,8.05,1.17,14.59,3.5,19.62c2.33,5.03,5.8,8.71,10.43,11.04
			c4.62,2.33,10.27,3.5,16.94,3.5c6.31,0,11.62-0.91,15.92-2.74c4.3-1.83,7.59-4.55,9.88-8.16c2.28-3.61,3.43-8.12,3.43-13.51v-1.37
			h-31.69v-12.76h47.06v49.94H414.5l-1.51-11.25c-2.56,3.02-5.49,5.47-8.78,7.34c-3.29,1.88-6.88,3.27-10.77,4.18
			C389.55,601.76,385.27,602.22,380.61,602.22"/>
		<path class="st1" d="M445.09,600.58v-72.16h11.8l1.24,11.66h0.82c0.82-2.28,1.9-4.44,3.22-6.45c1.32-2.01,3.06-3.66,5.21-4.94
			c2.15-1.28,4.78-1.92,7.89-1.92c1.46,0,2.76,0.14,3.91,0.41c1.14,0.27,2.03,0.5,2.68,0.69v13.44h-4.8c-2.93,0-5.51,0.46-7.75,1.37
			c-2.24,0.92-4.12,2.26-5.63,4.05c-1.51,1.78-2.61,3.96-3.29,6.52c-0.68,2.56-1.03,5.44-1.03,8.64v38.69H445.09z"/>
		<path class="st1" d="M521.1,602.22c-7.41,0-13.61-1.35-18.59-4.05c-4.99-2.7-8.76-6.84-11.32-12.42
			c-2.56-5.58-3.84-12.67-3.84-21.27c0-8.69,1.28-15.8,3.84-21.33c2.56-5.53,6.36-9.65,11.39-12.35c5.03-2.7,11.3-4.05,18.8-4.05
			c6.86,0,12.6,1.3,17.22,3.91c4.62,2.61,8.12,6.56,10.49,11.87c2.38,5.31,3.57,11.98,3.57,20.03v5.49h-50.62
			c0.18,5.12,0.96,9.4,2.33,12.83c1.37,3.43,3.45,5.95,6.24,7.54c2.79,1.6,6.33,2.4,10.63,2.4c2.65,0,5.03-0.34,7.13-1.03
			c2.1-0.69,3.89-1.69,5.35-3.02c1.46-1.32,2.61-2.92,3.43-4.8c0.82-1.87,1.24-4,1.24-6.38h13.99c0,4.3-0.73,8.09-2.19,11.39
			c-1.46,3.29-3.59,6.06-6.38,8.3c-2.79,2.24-6.1,3.96-9.95,5.15C530.01,601.63,525.76,602.22,521.1,602.22 M502.3,557.63h35.4
			c0-3.57-0.39-6.56-1.17-8.99c-0.78-2.42-1.9-4.41-3.36-5.97c-1.46-1.55-3.2-2.68-5.21-3.36c-2.01-0.69-4.3-1.03-6.86-1.03
			c-3.84,0-7.11,0.69-9.81,2.06c-2.7,1.37-4.78,3.5-6.24,6.38C503.58,549.61,502.67,553.24,502.3,557.63"/>
		<path class="st1" d="M585.44,602.22c-2.29,0-4.76-0.27-7.41-0.82c-2.65-0.55-5.14-1.55-7.48-3.02c-2.33-1.46-4.23-3.5-5.69-6.11
			c-1.46-2.61-2.19-6.01-2.19-10.22c0-4.94,1.14-9.01,3.43-12.21c2.28-3.2,5.49-5.72,9.6-7.55c4.12-1.83,9.03-3.11,14.75-3.84
			c5.71-0.73,11.96-1.1,18.73-1.1v-7.13c0-2.38-0.39-4.48-1.17-6.31c-0.78-1.83-2.2-3.24-4.25-4.25c-2.06-1.01-5.01-1.51-8.85-1.51
			c-3.84,0-6.84,0.48-8.99,1.44c-2.15,0.96-3.66,2.15-4.52,3.57c-0.87,1.42-1.3,2.95-1.3,4.6v2.06h-13.72
			c-0.09-0.46-0.14-0.91-0.14-1.37v-1.65c0-4.3,1.21-7.93,3.63-10.91c2.42-2.97,5.83-5.23,10.22-6.79
			c4.39-1.55,9.47-2.33,15.23-2.33c6.22,0,11.41,0.89,15.57,2.68c4.16,1.78,7.29,4.32,9.4,7.61c2.1,3.29,3.16,7.27,3.16,11.93v36.63
			c0,1.74,0.43,2.97,1.3,3.7c0.87,0.73,1.9,1.1,3.09,1.1h4.94v9.6c-1.1,0.46-2.47,0.91-4.12,1.37c-1.65,0.46-3.57,0.69-5.76,0.69
			c-2.47,0-4.55-0.43-6.24-1.3c-1.69-0.87-3.06-2.1-4.11-3.7c-1.05-1.6-1.76-3.41-2.13-5.42h-0.82c-1.65,2.11-3.63,3.96-5.97,5.56
			c-2.33,1.6-5.01,2.84-8.03,3.7C592.57,601.79,589.19,602.22,585.44,602.22 M589.42,590.42c2.83,0,5.46-0.43,7.89-1.3
			c2.42-0.87,4.51-2.1,6.24-3.7c1.73-1.6,3.11-3.52,4.12-5.76c1.01-2.24,1.51-4.69,1.51-7.34v-4.8c-6.31,0-11.85,0.37-16.6,1.1
			c-4.76,0.73-8.46,2.08-11.11,4.05c-2.65,1.97-3.98,4.69-3.98,8.16c0,2.11,0.46,3.87,1.37,5.28c0.91,1.42,2.28,2.49,4.12,3.22
			C584.8,590.06,586.95,590.42,589.42,590.42"/>
		<path class="st1" d="M660.62,602.22c-4.12,0-7.34-0.8-9.67-2.4c-2.33-1.6-3.98-3.66-4.94-6.17c-0.96-2.51-1.44-5.19-1.44-8.03
			v-45.41h-9.06v-11.8h9.33l2.61-20.16h11.39v20.16h13.03v11.8h-13.03v43.76c0,2.11,0.46,3.7,1.37,4.8c0.91,1.1,2.42,1.65,4.53,1.65
			h7.14v9.6c-0.91,0.37-2.04,0.71-3.36,1.03c-1.33,0.32-2.67,0.59-4.05,0.82C663.09,602.11,661.81,602.22,660.62,602.22"/>
		<path class="st1" d="M684.49,600.58v-72.16h11.8l1.24,10.29h0.96c1.74-2.65,3.79-4.85,6.17-6.59c2.38-1.74,5.01-3.06,7.89-3.98
			c2.88-0.91,6.05-1.37,9.53-1.37c4.57,0,8.6,0.8,12.08,2.4c3.47,1.6,6.19,4.18,8.16,7.75c1.96,3.57,2.95,8.37,2.95,14.41v49.25H731
			v-47.06c0-2.74-0.35-5.03-1.03-6.86c-0.69-1.83-1.67-3.29-2.95-4.39c-1.28-1.1-2.79-1.87-4.53-2.33
			c-1.74-0.46-3.66-0.69-5.76-0.69c-3.29,0-6.29,0.8-8.99,2.4c-2.7,1.6-4.87,3.82-6.52,6.65c-1.65,2.84-2.47,6.17-2.47,10.01v42.25
			H684.49z"/>
		<path class="st1" d="M793.01,602.22c-7.41,0-13.61-1.35-18.59-4.05c-4.99-2.7-8.76-6.84-11.32-12.42
			c-2.56-5.58-3.84-12.67-3.84-21.27c0-8.69,1.28-15.8,3.84-21.33c2.56-5.53,6.36-9.65,11.39-12.35c5.03-2.7,11.3-4.05,18.8-4.05
			c6.86,0,12.6,1.3,17.22,3.91c4.62,2.61,8.12,6.56,10.49,11.87c2.38,5.31,3.57,11.98,3.57,20.03v5.49h-50.62
			c0.18,5.12,0.96,9.4,2.33,12.83c1.37,3.43,3.45,5.95,6.24,7.54c2.79,1.6,6.33,2.4,10.63,2.4c2.65,0,5.03-0.34,7.13-1.03
			c2.1-0.69,3.89-1.69,5.35-3.02c1.46-1.32,2.61-2.92,3.43-4.8c0.82-1.87,1.24-4,1.24-6.38h13.99c0,4.3-0.73,8.09-2.2,11.39
			c-1.46,3.29-3.59,6.06-6.38,8.3c-2.79,2.24-6.1,3.96-9.95,5.15C801.92,601.63,797.67,602.22,793.01,602.22 M774.21,557.63h35.4
			c0-3.57-0.39-6.56-1.17-8.99c-0.78-2.42-1.9-4.41-3.36-5.97c-1.46-1.55-3.2-2.68-5.21-3.36c-2.01-0.69-4.3-1.03-6.86-1.03
			c-3.84,0-7.11,0.69-9.81,2.06c-2.7,1.37-4.78,3.5-6.24,6.38C775.49,549.61,774.58,553.24,774.21,557.63"/>
		<path class="st1" d="M865.72,602.22c-5.03,0-9.47-0.55-13.31-1.65c-3.84-1.1-7.04-2.61-9.6-4.53c-2.56-1.92-4.5-4.23-5.83-6.93
			c-1.33-2.7-1.99-5.69-1.99-8.99c0-0.46,0.02-0.87,0.07-1.24c0.04-0.36,0.07-0.69,0.07-0.96h14.13v0.75v0.75
			c0,2.84,0.78,5.1,2.33,6.79c1.55,1.69,3.63,2.88,6.24,3.57c2.61,0.69,5.47,1.03,8.57,1.03c2.75,0,5.28-0.34,7.62-1.03
			c2.33-0.69,4.25-1.71,5.76-3.09c1.51-1.37,2.26-3.11,2.26-5.21c0-2.74-0.96-4.85-2.88-6.31c-1.92-1.46-4.44-2.63-7.55-3.5
			c-3.11-0.87-6.36-1.81-9.74-2.81c-3.02-0.82-6.02-1.71-8.99-2.68c-2.98-0.96-5.65-2.22-8.03-3.77c-2.38-1.55-4.3-3.52-5.76-5.9
			c-1.46-2.38-2.19-5.35-2.19-8.92c0-3.38,0.73-6.36,2.19-8.92c1.46-2.56,3.5-4.71,6.11-6.45c2.61-1.74,5.72-3.06,9.33-3.98
			c3.61-0.91,7.57-1.37,11.87-1.37c4.48,0,8.46,0.48,11.94,1.44c3.47,0.96,6.43,2.31,8.85,4.05c2.42,1.74,4.27,3.82,5.56,6.24
			c1.28,2.43,1.92,5.01,1.92,7.75c0,0.55-0.02,1.12-0.07,1.71c-0.05,0.6-0.07,0.98-0.07,1.17h-13.99v-1.24
			c0-1.83-0.5-3.47-1.51-4.94c-1.01-1.46-2.59-2.65-4.73-3.57c-2.15-0.91-5.01-1.37-8.57-1.37c-2.38,0-4.48,0.21-6.31,0.62
			c-1.83,0.41-3.34,0.98-4.52,1.72c-1.19,0.73-2.08,1.6-2.68,2.61c-0.6,1.01-0.89,2.15-0.89,3.43c0,2.11,0.75,3.73,2.26,4.87
			c1.51,1.15,3.5,2.11,5.96,2.88c2.47,0.78,5.12,1.62,7.96,2.54c3.29,0.91,6.63,1.85,10.01,2.81c3.38,0.96,6.52,2.17,9.4,3.64
			c2.88,1.46,5.21,3.48,7,6.03c1.78,2.56,2.67,5.99,2.67,10.29c0,3.93-0.78,7.36-2.33,10.29c-1.55,2.93-3.73,5.28-6.51,7.07
			c-2.79,1.78-6.06,3.11-9.81,3.98C874.18,601.79,870.11,602.22,865.72,602.22"/>
		<path class="st1" d="M937.61,602.22c-5.03,0-9.47-0.55-13.31-1.65c-3.84-1.1-7.04-2.61-9.6-4.53c-2.56-1.92-4.5-4.23-5.83-6.93
			c-1.33-2.7-1.99-5.69-1.99-8.99c0-0.46,0.02-0.87,0.07-1.24c0.04-0.36,0.07-0.69,0.07-0.96h14.13v0.75v0.75
			c0,2.84,0.78,5.1,2.33,6.79c1.55,1.69,3.63,2.88,6.24,3.57c2.61,0.69,5.47,1.03,8.57,1.03c2.75,0,5.28-0.34,7.62-1.03
			c2.33-0.69,4.25-1.71,5.76-3.09c1.51-1.37,2.26-3.11,2.26-5.21c0-2.74-0.96-4.85-2.88-6.31c-1.92-1.46-4.44-2.63-7.55-3.5
			c-3.11-0.87-6.36-1.81-9.74-2.81c-3.02-0.82-6.02-1.71-8.99-2.68c-2.98-0.96-5.65-2.22-8.03-3.77c-2.38-1.55-4.3-3.52-5.76-5.9
			c-1.46-2.38-2.19-5.35-2.19-8.92c0-3.38,0.73-6.36,2.19-8.92c1.46-2.56,3.5-4.71,6.11-6.45c2.61-1.74,5.72-3.06,9.33-3.98
			c3.61-0.91,7.57-1.37,11.87-1.37c4.48,0,8.46,0.48,11.94,1.44c3.47,0.96,6.43,2.31,8.85,4.05c2.42,1.74,4.27,3.82,5.56,6.24
			c1.28,2.43,1.92,5.01,1.92,7.75c0,0.55-0.02,1.12-0.07,1.71c-0.05,0.6-0.07,0.98-0.07,1.17h-13.99v-1.24
			c0-1.83-0.5-3.47-1.51-4.94c-1.01-1.46-2.59-2.65-4.73-3.57c-2.15-0.91-5.01-1.37-8.57-1.37c-2.38,0-4.48,0.21-6.31,0.62
			c-1.83,0.41-3.34,0.98-4.52,1.72c-1.19,0.73-2.08,1.6-2.68,2.61c-0.6,1.01-0.89,2.15-0.89,3.43c0,2.11,0.75,3.73,2.26,4.87
			c1.51,1.15,3.5,2.11,5.96,2.88c2.47,0.78,5.12,1.62,7.96,2.54c3.29,0.91,6.63,1.85,10.01,2.81c3.38,0.96,6.52,2.17,9.4,3.64
			c2.88,1.46,5.21,3.48,7,6.03c1.78,2.56,2.67,5.99,2.67,10.29c0,3.93-0.78,7.36-2.33,10.29c-1.55,2.93-3.73,5.28-6.51,7.07
			c-2.79,1.78-6.06,3.11-9.81,3.98C946.07,601.79,942,602.22,937.61,602.22"/>
	</g>
</g>
</svg>
