<svg xmlns="http://www.w3.org/2000/svg" xmlns:xlink="http://www.w3.org/1999/xlink" width="500" zoomAndPan="magnify" viewBox="0 0 375 374.999991" height="500" preserveAspectRatio="xMidYMid meet" version="1.2"><g id="05a6d71a6b"><path style=" stroke:none;fill-rule:nonzero;fill:#d22031;fill-opacity:1;" d="M 185.808594 202.558594 L 65.789062 202.558594 L 65.789062 71.863281 C 92.332031 71.863281 114.40625 76.566406 132.097656 85.886719 C 149.789062 95.292969 163.175781 109.554688 172.265625 128.683594 C 181.269531 147.882812 185.808594 172.433594 185.808594 202.558594 "/><path style=" stroke:none;fill-rule:nonzero;fill:#d22031;fill-opacity:1;" d="M 316.542969 333.335938 L 316.296875 333.335938 C 290.320312 333.335938 268.316406 328.632812 250.472656 319.308594 C 232.546875 309.902344 219.074219 295.558594 210.070312 276.277344 C 201.066406 256.914062 196.515625 232.363281 196.515625 202.640625 L 196.515625 202.558594 L 316.53125 202.558594 L 316.53125 333.335938 Z M 316.542969 333.335938 "/><path style=" stroke:none;fill-rule:nonzero;fill:#d22031;fill-opacity:1;" d="M 316.542969 71.863281 L 196.527344 71.863281 L 196.527344 202.558594 L 316.542969 137.203125 Z M 316.542969 71.863281 "/></g></svg>